# xmcd
# 
# Track frame offsets:
#     150
#     14338
#     31806
#     46663
#     71580
#     86994
#     105570
#     131711
#     156804
#     175139
# 
# Disc length: 2512
# 
# Revision: 5
# Processed by: cddbd v1.5.2PL0 Copyright (c) Steve Scherf et al.
# Submitted via: fre:ac v1.0.31
# 
DISCID=7a09ce0a
DTITLE=James Taylor - Before This World
DYEAR=2015
DGENRE=Rock/Pop
TTITLE0=Today Today Today
TTITLE1=You and I Again
TTITLE2=Angels of Fenway
TTITLE3=Stretch of the Highway
TTITLE4=Montana
TTITLE5=Watchin' Over Me
TTITLE6=Snowtime
TTITLE7=Before This World - Jolly Springtime
TTITLE8=Far Afghanistan
TTITLE9=Wild Mountain Thyme
EXTD=
EXTT0=
EXTT1=
EXTT2=
EXTT3=
EXTT4=
EXTT5=
EXTT6=
EXTT7=
EXTT8=
EXTT9=
PLAYORDER=
